<svg width="231" height="200" viewBox="0 0 231 200" fill="none" xmlns="http://www.w3.org/2000/svg">
<g clip-path="url(#clip0_445_682)">
<path d="M78.277 139.013C76.123 139.006 73.9784 138.729 71.8936 138.188L71.4826 138.074L71.1014 137.883C57.3199 130.973 45.6932 121.846 36.5442 110.756C28.9707 101.521 23.0661 91.0365 19.0959 79.7729C14.348 66.2875 12.0639 52.0583 12.3524 37.7645C12.3582 37.4644 12.3632 37.2328 12.3632 37.0732C12.3632 30.1248 16.22 24.0282 22.1889 21.5411C26.7572 19.6376 68.2353 2.60095 71.2322 1.37C76.8762 -1.45798 82.8973 0.902416 83.8608 1.31519C86.0221 2.19883 124.366 17.882 132.652 21.8276C141.192 25.8941 143.47 33.1994 143.47 36.8748C143.47 53.5146 140.588 69.0658 134.905 83.0965C130.315 94.4533 123.809 104.938 115.671 114.093C99.9701 131.763 84.265 138.026 84.1135 138.082C82.2365 138.727 80.2617 139.043 78.277 139.013ZM74.5836 129.865C75.9452 130.17 79.08 130.628 81.1233 129.883C83.7189 128.936 96.8638 122.12 109.147 108.296C126.119 89.1974 134.73 65.1884 134.743 36.9362C134.713 36.3638 134.306 32.2814 128.9 29.7072C120.775 25.8379 80.9193 9.54114 80.5177 9.37689L80.4075 9.33021C79.5723 8.98021 76.9142 8.24298 75.0819 9.20316L74.7151 9.37419C74.2708 9.55665 30.2414 27.6405 25.5456 29.597C22.2608 30.9657 21.0904 34.3564 21.0904 37.0732C21.0904 37.2717 21.0853 37.5605 21.078 37.9338C20.7027 57.265 25.1761 104.833 74.5836 129.865Z" fill="#3F3D56"/>
<path d="M73.0584 5.33786C73.0584 5.33786 28.6288 23.5857 23.8685 25.5692C19.1082 27.5527 16.728 32.313 16.728 37.0733C16.728 41.8336 13.1578 103.949 73.0584 133.982C73.0584 133.982 78.495 135.486 82.6197 133.982C86.7443 132.478 139.108 107.09 139.108 36.875C139.108 36.875 139.108 29.7345 130.777 25.7676C122.447 21.8006 82.1699 5.33786 82.1699 5.33786C82.1699 5.33786 77.2237 3.15605 73.0584 5.33786Z" fill="#00B195"/>
<path opacity="0.1" d="M77.817 19.6187V116.965C77.817 116.965 32.9907 95.387 33.3874 38.6599L77.817 19.6187Z" fill="black"/>
<path d="M78.4025 89.5825L64.123 71.2223L72.4272 64.7637L79.1885 73.4569L102.029 49.3452L109.667 56.5819L78.4025 89.5825Z" fill="white"/>
<path d="M292.492 200H162.012C161.922 200 161.834 199.964 161.77 199.9C161.706 199.836 161.67 199.748 161.67 199.658C161.67 199.567 161.706 199.48 161.77 199.415C161.834 199.351 161.922 199.315 162.012 199.315H292.492C292.583 199.315 292.67 199.351 292.734 199.415C292.798 199.48 292.834 199.567 292.834 199.658C292.834 199.748 292.798 199.836 292.734 199.9C292.67 199.964 292.583 200 292.492 200Z" fill="#CACACA"/>
<path d="M199.73 194.602L205.026 194.601L207.546 174.172L199.729 174.172L199.73 194.602Z" fill="#FFB8B8"/>
<path d="M198.379 192.872L208.81 192.872H208.81C210.573 192.872 212.264 193.572 213.51 194.819C214.757 196.066 215.457 197.756 215.457 199.519V199.735L198.379 199.736L198.379 192.872Z" fill="#2F2E41"/>
<path d="M217.538 194.602L222.834 194.601L225.354 174.172L217.537 174.172L217.538 194.602Z" fill="#FFB8B8"/>
<path d="M216.188 192.872L226.618 192.872H226.619C228.382 192.872 230.072 193.572 231.319 194.819C232.565 196.066 233.266 197.756 233.266 199.519V199.735L216.188 199.736L216.188 192.872Z" fill="#2F2E41"/>
<path d="M208.053 122.86L209.324 187.671L199.046 187.034L191.916 145.752L189.664 117.605L208.053 122.86Z" fill="#2F2E41"/>
<path d="M225.694 111.976L227.134 188.699L215.148 188.356L212.559 142.75L208.055 126.237L189.666 117.606L192.668 96.9649L219.689 96.5896L225.694 111.976Z" fill="#2F2E41"/>
<path d="M205.027 43.2986C210.103 43.2986 214.218 39.1836 214.218 34.1074C214.218 29.0313 210.103 24.9163 205.027 24.9163C199.951 24.9163 195.836 29.0313 195.836 34.1074C195.836 39.1836 199.951 43.2986 205.027 43.2986Z" fill="#FFB8B8"/>
<path d="M212.651 47.1707L214.059 49.3035L217.812 59.8114L214.81 100.718L197.171 101.093L194.92 54.182L199.637 48.2861L212.651 47.1707Z" fill="#CCCCCC"/>
<path d="M187.788 55.3079L184.786 54.9326C184.786 54.9326 184.035 55.3079 183.66 57.9349C183.285 60.5619 178.781 83.8298 178.781 83.8298L184.786 112.352L191.541 103.345L187.413 87.5827L191.541 71.8206L187.788 55.3079Z" fill="#2F2E41"/>
<path d="M226.068 54.9329H228.32L233.949 85.3308L228.695 108.974L223.441 100.342L224.942 90.9603L224.192 82.7041L221.564 77.825L226.068 54.9329Z" fill="#2F2E41"/>
<path d="M210.459 34.1075L208.788 33.6897C208.788 33.6897 207.535 26.5875 204.611 27.423C201.686 28.2586 194.166 29.0941 194.166 25.7519C194.166 22.4096 201.268 19.4852 205.446 19.9029C209.624 20.3207 214.96 21.7067 216.308 27.8408C218.471 37.674 211.847 40.1577 211.847 40.1577L211.958 39.7997C212.264 38.8056 212.285 37.7457 212.021 36.7399C211.756 35.734 211.215 34.8222 210.459 34.1075Z" fill="#2F2E41"/>
<path d="M185.162 54.9325L197.171 50.0537L199.986 47.9896L208.43 85.3308L212.37 46.8638L227.945 54.9325L222.691 80.452L221.94 90.2095L224.192 98.0905C224.192 98.0905 232.073 103.72 229.446 109.724C226.819 115.729 223.817 116.104 223.817 116.104C223.817 116.104 211.057 104.095 210.306 101.093C209.556 98.0905 208.43 92.8365 208.43 92.8365C208.43 92.8365 202.05 116.855 194.544 116.48C187.039 116.104 187.039 108.223 187.039 108.223L188.915 99.967L191.917 91.3353L190.416 77.0744L185.162 54.9325Z" fill="#2F2E41"/>
</g>
<defs>
<clipPath id="clip0_445_682">
<rect width="230.137" height="200" fill="white"/>
</clipPath>
</defs>
</svg>
