<svg width="167" height="200" viewBox="0 0 167 200" fill="none" xmlns="http://www.w3.org/2000/svg">
<g clip-path="url(#clip0_445_624)">
<path d="M1.18726 95.6572C1.79724 96.6759 2.62317 97.5485 3.60686 98.2135C4.59054 98.8784 5.70808 99.3196 6.88073 99.506C8.05338 99.6924 9.25262 99.6193 10.394 99.2921C11.5354 98.9648 12.5911 98.3913 13.4869 97.6119L38.5237 111.971L37.5906 97.0021L13.9582 85.6609C12.5491 84.2429 10.6688 83.3911 8.6736 83.2668C6.67839 83.1425 4.7069 83.7544 3.13271 84.9866C1.55852 86.2188 0.491005 87.9856 0.132446 89.9522C-0.226113 91.9189 0.149198 93.9488 1.18726 95.6572Z" fill="#FFB8B8"/>
<path d="M73.6702 153.181C66.2435 163.576 66.5092 180.967 68.5812 200H103.695L105.222 196.438L107.257 200H140.336C140.336 200 137.791 151.655 133.211 150.128C128.631 148.601 73.6702 153.181 73.6702 153.181Z" fill="#2F2E41"/>
<path d="M103.696 44.5787C113.533 44.5787 121.508 36.6042 121.508 26.7672C121.508 16.9303 113.533 8.95581 103.696 8.95581C93.8592 8.95581 85.8848 16.9303 85.8848 26.7672C85.8848 36.6042 93.8592 44.5787 103.696 44.5787Z" fill="#FFB8B8"/>
<path d="M116.57 49.2L120.053 55.8759L144.145 66.6155L137.812 127.9L135.147 134.246L136.587 139.757L133.115 143.825C136.6 146.978 137.043 150.279 135.147 153.693L124.053 156.235C124.053 156.235 62.3662 161.72 67.5649 152.164C73.2452 141.722 74.6917 110.884 62.1518 94.4055C51.5059 80.4153 59.6792 62.2616 59.6792 62.2616L84.9318 54.7149L94.2201 49.2L116.57 49.2Z" fill="#3F3D56"/>
<path d="M111.604 0.676341C111.688 0.499249 111.823 0.351216 111.991 0.251254C112.16 0.151292 112.354 0.103963 112.55 0.11535C104.395 -0.372423 95.8061 0.577995 88.9841 5.07162C87.3313 6.16028 85.7731 7.4588 83.9746 8.24854C83.8898 8.28668 83.8162 8.34613 83.7611 8.42111C83.7059 8.49609 83.6712 8.58404 83.6601 8.67644C83.649 8.76883 83.662 8.86253 83.6978 8.94842C83.7336 9.03431 83.791 9.10948 83.8645 9.16663L84.062 9.32153C84.1399 9.38265 84.1996 9.46397 84.2345 9.55664C84.2695 9.64932 84.2784 9.7498 84.2602 9.84716C84.242 9.94452 84.1975 10.035 84.1314 10.1088C84.0654 10.1827 83.9804 10.237 83.8857 10.2658C83.7869 10.296 83.6988 10.3537 83.6318 10.4322C83.5647 10.5107 83.5215 10.6067 83.5072 10.7089C83.4929 10.8112 83.5081 10.9154 83.5511 11.0093C83.594 11.1032 83.6629 11.1828 83.7496 11.2389L85.2634 12.2172C85.3396 12.2656 85.4025 12.3324 85.4462 12.4115C85.4899 12.4905 85.5131 12.5792 85.5136 12.6695C85.5141 12.7598 85.4919 12.8488 85.449 12.9283C85.4062 13.0078 85.344 13.0753 85.2683 13.1245C85.1401 13.2037 85.0055 13.272 84.8658 13.3286C84.7789 13.3613 84.7019 13.4157 84.6421 13.4868C84.5824 13.5579 84.542 13.6431 84.5248 13.7343C84.5076 13.8256 84.5141 13.9197 84.5439 14.0076C84.5736 14.0956 84.6255 14.1744 84.6945 14.2364C85.3501 14.82 85.8529 15.5551 86.1592 16.3775C86.6637 17.6895 86.7543 19.1182 86.8396 20.5212C87.361 18.4969 89.5703 17.3052 91.6573 17.1841C93.7442 17.0631 95.7795 17.7516 97.8105 18.2466C102.234 19.3216 106.828 19.4983 111.322 18.7664C109.796 21.8283 111.083 25.4804 112.378 28.6468L116.57 26.8499C122.328 23.5999 118.317 37.3479 116.165 39.2353C120.56 40.759 132.063 23.8475 128.362 17.4326C126.437 14.0957 127.804 9.79183 124.019 6.62698C122.164 4.67436 118.461 5.54223 116.57 3.91937C115.826 3.28064 116.96 1.57181 115.938 1.19939C115.598 1.0757 111.66 0.551675 111.604 0.676341Z" fill="#2F2E41"/>
<path d="M81.4327 56.439C78.1643 70.949 69.7816 104.828 61.277 111.913C60.7377 112.423 60.091 112.805 59.3845 113.031C29.4907 120.314 19.9121 101.737 19.9121 101.737C19.9121 101.737 27.9233 97.8329 28.1265 90.202L44.2823 95.2148L58.3657 63.5213L60.4382 61.5882L60.4498 61.5766L81.4327 56.439Z" fill="#3F3D56"/>
<path d="M145.172 190.432C146.028 189.61 146.693 188.609 147.12 187.501C147.548 186.394 147.727 185.206 147.646 184.021C147.565 182.836 147.224 181.684 146.65 180.645C146.075 179.606 145.279 178.706 144.319 178.008L152.699 150.389L138.32 154.654L132.566 180.228C131.5 181.919 131.092 183.943 131.418 185.915C131.744 187.887 132.783 189.671 134.336 190.929C135.89 192.187 137.851 192.831 139.848 192.74C141.845 192.648 143.739 191.827 145.172 190.432Z" fill="#FFB8B8"/>
<path d="M137.503 65.0703L144.145 66.6154C144.145 66.6154 171.599 120.031 164.983 130.209C158.368 140.387 150.263 174.084 150.263 174.084C150.263 174.084 138.276 171.701 133.696 165.594L142.083 125.629L133.432 92.0419L137.503 65.0703Z" fill="#3F3D56"/>
<path d="M11.4883 144.391L11.7268 58.3616C11.7336 56.6203 12.4308 54.9529 13.6655 53.7251C14.9001 52.4972 16.5714 51.8093 18.3126 51.8121L83.2841 51.9923C85.0254 51.9991 86.6928 52.6963 87.9206 53.9309C89.1485 55.1656 89.8364 56.8369 89.8335 58.5781L89.595 144.608C89.5882 146.349 88.891 148.016 87.6564 149.244C86.4217 150.472 84.7505 151.16 83.0092 151.157L18.0377 150.977C16.2965 150.97 14.629 150.273 13.4012 149.038C12.1734 147.804 11.4854 146.132 11.4883 144.391Z" fill="#E6E6E6"/>
<path d="M16.545 118.421L16.6983 63.1129C16.7046 61.4821 17.3576 59.9205 18.5139 58.7706C19.6702 57.6207 21.2354 56.9764 22.8661 56.9791L78.7037 57.1339C80.3344 57.1403 81.8961 57.7932 83.0461 58.9495C84.196 60.1058 84.8403 61.671 84.8377 63.3018L84.6255 139.856C84.6191 141.487 83.966 143.049 82.8097 144.199C81.6533 145.349 80.0881 145.993 78.4573 145.99L43.8671 145.894C36.6033 145.866 29.6472 142.958 24.5251 137.807C19.403 132.656 16.5331 125.684 16.545 118.421Z" fill="white"/>
<path d="M72.3036 81.2735H28.7647C28.0718 81.2735 27.4074 80.9983 26.9175 80.5084C26.4276 80.0185 26.1523 79.354 26.1523 78.6612C26.1523 77.9683 26.4276 77.3039 26.9175 76.814C27.4074 76.3241 28.0718 76.0488 28.7647 76.0488H72.3036C72.9965 76.0488 73.6609 76.3241 74.1508 76.814C74.6407 77.3039 74.916 77.9683 74.916 78.6612C74.916 79.354 74.6407 80.0185 74.1508 80.5084C73.6609 80.9983 72.9965 81.2735 72.3036 81.2735Z" fill="#00B195"/>
<path d="M38.3433 69.2278H28.7647C28.0718 69.2278 27.4074 68.9526 26.9175 68.4627C26.4276 67.9728 26.1523 67.3083 26.1523 66.6155C26.1523 65.9227 26.4276 65.2582 26.9175 64.7683C27.4074 64.2784 28.0718 64.0032 28.7647 64.0032H38.3433C39.0361 64.0032 39.7005 64.2784 40.1905 64.7683C40.6804 65.2582 40.9556 65.9227 40.9556 66.6155C40.9556 67.3083 40.6804 67.9728 40.1905 68.4627C39.7005 68.9526 39.0361 69.2278 38.3433 69.2278Z" fill="#00B195"/>
<path d="M72.3036 93.3194H28.7647C28.0718 93.3194 27.4074 93.0442 26.9175 92.5543C26.4276 92.0644 26.1523 91.3999 26.1523 90.7071C26.1523 90.0142 26.4276 89.3498 26.9175 88.8599C27.4074 88.37 28.0718 88.0947 28.7647 88.0947H72.3036C72.9965 88.0947 73.6609 88.37 74.1508 88.8599C74.6407 89.3498 74.916 90.0142 74.916 90.7071C74.916 91.3999 74.6407 92.0644 74.1508 92.5543C73.6609 93.0442 72.9965 93.3194 72.3036 93.3194Z" fill="#00B195"/>
<path d="M72.3036 105.365H28.7647C28.0718 105.365 27.4074 105.09 26.9175 104.6C26.4276 104.11 26.1523 103.446 26.1523 102.753C26.1523 102.06 26.4276 101.395 26.9175 100.906C27.4074 100.416 28.0718 100.14 28.7647 100.14H72.3036C72.9965 100.14 73.6609 100.416 74.1508 100.906C74.6407 101.395 74.916 102.06 74.916 102.753C74.916 103.446 74.6407 104.11 74.1508 104.6C73.6609 105.09 72.9965 105.365 72.3036 105.365Z" fill="#00B195"/>
<path d="M68.7812 137.105C74.5219 137.105 79.1757 132.452 79.1757 126.711C79.1757 120.97 74.5219 116.316 68.7812 116.316C63.0405 116.316 58.3867 120.97 58.3867 126.711C58.3867 132.452 63.0405 137.105 68.7812 137.105Z" fill="#00B195"/>
<path d="M67.3638 132.121C67.1843 132.121 67.0073 132.079 66.8468 131.999C66.6862 131.918 66.5466 131.802 66.4389 131.658L63.6032 127.877C63.5119 127.756 63.4454 127.617 63.4075 127.47C63.3697 127.323 63.3612 127.17 63.3826 127.019C63.404 126.869 63.4549 126.724 63.5323 126.593C63.6096 126.463 63.712 126.348 63.8336 126.257C63.9552 126.166 64.0935 126.1 64.2407 126.062C64.388 126.024 64.5412 126.016 64.6916 126.038C64.842 126.059 64.9867 126.11 65.1173 126.188C65.248 126.265 65.3621 126.368 65.4532 126.49L67.3084 128.963L72.0734 121.816C72.1574 121.689 72.2656 121.58 72.3919 121.495C72.5181 121.41 72.6598 121.351 72.809 121.321C72.9581 121.291 73.1117 121.29 73.261 121.32C73.4103 121.349 73.5523 121.408 73.6789 121.492C73.8055 121.576 73.9142 121.685 73.9987 121.811C74.0833 121.938 74.1421 122.08 74.1717 122.229C74.2013 122.378 74.2011 122.532 74.1713 122.681C74.1414 122.83 74.0823 122.972 73.9975 123.099L68.326 131.606C68.2234 131.76 68.0854 131.887 67.9236 131.976C67.7618 132.066 67.5809 132.115 67.396 132.12C67.3853 132.121 67.3746 132.121 67.3638 132.121Z" fill="white"/>
<path d="M46.6161 31.7842C49.3413 31.7842 51.5505 29.575 51.5505 26.8498C51.5505 24.1246 49.3413 21.9154 46.6161 21.9154C43.8909 21.9154 41.6816 24.1246 41.6816 26.8498C41.6816 29.575 43.8909 31.7842 46.6161 31.7842Z" fill="#F2F2F2"/>
<path d="M28.62 173.721C31.3452 173.721 33.5544 171.512 33.5544 168.787C33.5544 166.062 31.3452 163.853 28.62 163.853C25.8948 163.853 23.6855 166.062 23.6855 168.787C23.6855 171.512 25.8948 173.721 28.62 173.721Z" fill="#F2F2F2"/>
<path d="M142.112 50.9413C144.837 50.9413 147.047 48.7321 147.047 46.0069C147.047 43.2817 144.837 41.0725 142.112 41.0725C139.387 41.0725 137.178 43.2817 137.178 46.0069C137.178 48.7321 139.387 50.9413 142.112 50.9413Z" fill="#F2F2F2"/>
</g>
<defs>
<clipPath id="clip0_445_624">
<rect width="166.011" height="200" fill="white"/>
</clipPath>
</defs>
</svg>
