<svg width="177" height="191" viewBox="0 0 177 191" fill="none" xmlns="http://www.w3.org/2000/svg">
<g clip-path="url(#clip0_445_658)">
<path d="M44.0372 30.0731C41.84 22.0624 59.5615 15.193 64.2151 21.6441C64.8622 20.7269 67.2536 20.1698 68.3509 20.4512C69.4481 20.7325 70.3709 21.4359 71.2712 22.1167C72.5091 23.0677 73.792 24.0524 74.5516 25.4197C75.3169 26.7814 75.435 28.6383 74.4054 29.8199C73.5895 30.7596 71.1812 31.3673 69.9545 31.6149C69.0992 31.7893 68.379 31.93 67.7601 32.0313C67.2086 31.2266 66.9273 30.2307 67.0285 29.2572C66.1958 29.8086 65.6331 30.754 65.5431 31.7555C65.5262 31.9637 72.4585 57.4702 72.4585 57.4702C71.7438 57.8923 70.8604 58.2861 69.842 58.6462C68.1145 56.041 66.6966 52.9688 65.7625 49.7558C65.5487 51.7421 65.5825 53.8972 65.8413 56.086C65.9763 57.2508 66.1789 58.4212 66.4377 59.5916C58.2 61.3697 45.8097 60.7845 40.4192 53.222C40.4182 53.1907 40.4173 53.1594 40.4165 53.1281C40.3779 51.713 38.4472 51.3613 37.9306 52.6793C37.7998 53.0129 37.6794 53.3017 37.572 53.5315C36.0021 47.9158 38.0334 41.4168 44.0372 30.0731Z" fill="#2F2E41"/>
<path d="M156.013 93.5977C154.064 95.9094 150.609 96.2034 148.298 94.2543C148.074 94.0655 147.865 93.859 147.674 93.6369L121.66 101.877L117.611 95.2411L148.581 85.6807C151.011 83.8881 154.434 84.4045 156.227 86.8343C157.727 88.8673 157.638 91.6635 156.013 93.5977Z" fill="#FFB6B6"/>
<path d="M63.8809 73.008C63.8809 73.008 75.4015 60.0499 80.4198 65.5544C85.4381 71.0588 101.095 95.1797 101.095 95.1797L137.643 87.4688L141.177 97.114L99.6786 110.562C96.5589 111.573 93.14 110.524 91.1233 107.938L63.8809 73.008Z" fill="#00B195"/>
<path d="M88.9024 191.13H31.7612L31.7091 190.684L31.6757 190.387L31.185 186.223L30.4898 180.294L30.2221 178.015C30.2036 177.9 30.185 177.788 30.1701 177.673C29.9359 176.19 29.8021 174.699 29.7537 173.212C29.6831 171.167 29.776 169.126 29.9954 167.112V167.1C30.1143 166.011 30.2667 164.933 30.4563 163.866C30.6942 162.495 30.9805 161.145 31.3114 159.825C31.6905 158.294 32.1218 156.803 32.5939 155.364C33.1366 153.68 33.7314 152.067 34.3448 150.543C34.4117 150.379 34.4787 150.216 34.5418 150.056L34.5456 150.052C37.7797 142.167 41.4526 136.781 41.4526 136.781H83.0809C83.0809 136.781 85.0065 145.231 85.9619 152.208C86.1143 153.312 86.2407 154.376 86.3337 155.364C86.501 157.19 86.5493 158.758 86.4043 159.825C86.3151 160.487 86.1515 160.955 85.8987 161.171C83.6087 163.126 86.2296 167.275 86.2296 167.275C86.2296 167.275 88.1924 170.275 86.4823 171.963C86.1441 172.297 85.9507 172.729 85.8578 173.212C85.7091 174.011 85.8392 174.941 86.0437 175.762C86.2481 176.587 86.5307 177.305 86.6868 177.673C86.7574 177.837 86.8021 177.929 86.8021 177.929L87.092 180.223L87.3745 182.431L87.8541 186.223L87.9991 186.892L88.7463 190.387L88.8095 190.684L88.9024 191.13Z" fill="#2F2E41"/>
<path d="M60.0407 55.2798L42.5694 56.8358L39.3493 66.8565L35.84 67.3646C29.8433 68.2329 26.2744 74.5223 28.6044 80.1155L31.6921 87.5278C31.6921 87.5278 27.1567 101.527 32.7269 107.409L35.0974 133.316L29.7503 150.394L92.2532 152.411L81.6067 130.989L81.291 117.688C81.291 117.688 88.0942 93.6468 81.7868 85.9997L79.3259 64.249L66.5044 62.3257L60.0407 55.2798Z" fill="#00B195"/>
<path d="M71.8685 42.4236C73.6689 34.6584 68.8334 26.9039 61.0682 25.1036C53.3029 23.3032 45.5485 28.1387 43.7481 35.9039C41.9478 43.6691 46.7832 51.4236 54.5485 53.224C62.3137 55.0243 70.0682 50.1888 71.8685 42.4236Z" fill="#FFB6B6"/>
<path d="M36.1603 31.1986C33.9631 23.1879 51.6845 16.3185 56.3381 22.7696C56.9852 21.8524 59.3767 21.2953 60.4739 21.5767C61.5711 21.858 62.4939 22.5614 63.3942 23.2422C64.6322 24.1932 65.9151 25.1779 66.6747 26.5452C67.4399 27.9069 67.5581 29.7638 66.5284 30.9454C65.7125 31.8851 63.3042 32.4928 62.0775 32.7404C61.2223 32.9148 60.502 33.0555 59.8831 33.1567C59.3316 32.3521 59.0503 31.3561 59.1516 30.3827C58.3188 30.9341 57.7561 31.8794 57.6661 32.881C57.6492 33.0892 64.5815 58.5957 64.5815 58.5957C63.8669 59.0178 62.9835 59.4116 61.965 59.7717C60.2376 57.1665 58.8196 54.0943 57.8855 50.8813C57.6717 52.8676 57.7055 55.0227 57.9643 57.2115C58.0994 58.3763 58.302 59.5467 58.5608 60.717C50.3231 62.4951 37.9328 61.91 32.5422 54.3475C32.5413 54.3162 32.5404 54.2849 32.5395 54.2535C32.5009 52.8385 30.5702 52.4868 30.0536 53.8048C29.9228 54.1384 29.8025 54.4272 29.695 54.6569C28.1252 49.0413 30.1564 42.5423 36.1603 31.1986Z" fill="#2F2E41"/>
<path d="M159.539 190.684H-34.5135L-64.625 191.056L146.551 178.448C153.595 178.028 159.539 183.627 159.539 190.684Z" fill="#3F3D56"/>
<path d="M207.064 190.387V191.13H-64.6836V-9H-63.9401V190.387H207.064Z" fill="#3F3D56"/>
<path d="M177.985 37.2898H128.524C127.383 37.2898 126.455 36.3651 126.455 35.2287C126.455 34.0922 127.383 33.168 128.524 33.168H177.985C179.126 33.168 180.054 34.0922 180.054 35.2287C180.054 36.3651 179.126 37.2898 177.985 37.2898Z" fill="#00B195"/>
<path d="M153.237 43.9366C153.052 43.481 152.414 43.4811 152.229 43.9368C150.939 47.1159 149.103 50.6762 147.106 53.3971C146.787 53.8327 147.228 54.4148 147.736 54.2309L152.016 52.6822V79.1819H153.449V52.6822L157.732 54.2311C158.24 54.4149 158.681 53.8329 158.361 53.3972C156.364 50.6763 154.528 47.1159 153.237 43.9366Z" fill="#3F3D56"/>
<path d="M124.768 14.8913H94.2734C93.5702 14.8913 92.998 14.3212 92.998 13.6206C92.998 12.9199 93.5702 12.3501 94.2734 12.3501H124.768C125.471 12.3501 126.043 12.9199 126.043 13.6206C126.043 14.3212 125.471 14.8913 124.768 14.8913Z" fill="#F2F2F2"/>
<path d="M109.509 18.9892C109.395 18.7083 109.001 18.7083 108.887 18.9893C108.092 20.9493 106.96 23.1443 105.729 24.8218C105.532 25.0904 105.804 25.4492 106.117 25.3359L108.756 24.3811V40.7188H109.64V24.3811L112.28 25.336C112.593 25.4494 112.865 25.0905 112.668 24.8219C111.436 23.1444 110.304 20.9493 109.509 18.9892Z" fill="#F2F2F2"/>
<path d="M109.527 56.4833C113.186 56.4833 116.153 53.5166 116.153 49.857C116.153 46.1974 113.186 43.2307 109.527 43.2307C105.867 43.2307 102.9 46.1974 102.9 49.857C102.9 53.5166 105.867 56.4833 109.527 56.4833Z" fill="#F2F2F2"/>
<path d="M32.7021 178.252C34.2657 175.664 33.4352 172.298 30.8472 170.735C30.5964 170.583 30.334 170.452 30.0623 170.343L29.5135 143.06L21.9297 141.356L22.8184 173.756C21.9008 176.632 23.4888 179.708 26.3655 180.626C28.7725 181.394 31.3922 180.412 32.7021 178.252Z" fill="#FFB6B6"/>
<path d="M37.9773 70.6097C37.9773 70.6097 28.6836 68.3792 25.7097 74.6989C22.7357 81.0186 22.4826 108.519 22.4826 108.519L20.877 164.29L32.6656 163.77L42.0665 95.145L37.9773 70.6097Z" fill="#00B195"/>
<path d="M33.8063 186.481C34.0155 186.744 34.3333 186.896 34.6688 186.894H95.0182C95.6315 186.893 96.1281 186.395 96.1274 185.782C96.1273 185.706 96.1193 185.63 96.1037 185.556L95.1669 181.106C95.088 180.737 94.8278 180.434 94.4755 180.299C94.3499 180.25 94.2163 180.225 94.0814 180.225H35.6019C35.467 180.225 35.3334 180.25 35.2078 180.299C34.8555 180.434 34.5953 180.737 34.5164 181.106L33.5796 185.556C33.5121 185.883 33.5953 186.223 33.8063 186.481Z" fill="#CCCCCC"/>
<path d="M10.7031 86.8679V156.481C10.7046 158.328 12.2017 159.826 14.0489 159.827H117.209C119.056 159.826 120.553 158.328 120.554 156.481V86.8679C120.55 85.0225 119.054 83.5282 117.209 83.5259H14.0488C12.2035 83.5282 10.7075 85.0225 10.7031 86.8679Z" fill="#E6E6E6"/>
<path d="M78.5294 144.941C78.4067 144.9 78.2766 144.881 78.1465 144.881H54.0126C53.3026 144.881 52.7227 145.457 52.7227 146.167V184.294H79.4327V146.167C79.4327 145.606 79.0684 145.108 78.5294 144.941ZM68.8491 163.692C68.8416 165.268 67.5591 166.539 65.9829 166.532C64.4178 166.521 63.1539 165.257 63.1465 163.692V159.268C63.1613 157.695 64.4513 156.431 66.0238 156.446C67.5777 156.461 68.8342 157.718 68.8491 159.268V163.692Z" fill="#CCCCCC"/>
</g>
<defs>
<clipPath id="clip0_445_658">
<rect width="177" height="191" fill="white"/>
</clipPath>
</defs>
</svg>
