<svg width="303" height="283" viewBox="0 0 303 283" fill="none" xmlns="http://www.w3.org/2000/svg">
<g clip-path="url(#clip0_566_74)">
<path d="M279.706 216.503L293.28 218.624C297.875 213.061 301.042 206.461 302.507 199.396C292.582 207.52 277.488 203.203 265.452 207.638C261.709 209.051 258.332 211.287 255.571 214.182C252.809 217.077 250.735 220.556 249.501 224.362L242.867 231.499C248.872 233.876 255.321 234.923 261.77 234.568C268.218 234.213 274.513 232.464 280.221 229.442C283.406 227.715 286.361 225.594 289.016 223.128C284.266 220.138 279.706 216.503 279.706 216.503Z" fill="#F2F2F2"/>
<path d="M274.888 194.794L287.984 190.639C289.615 183.61 289.506 176.29 287.667 169.313C282.406 181.012 266.971 183.879 258.177 193.216C255.457 196.15 253.431 199.658 252.251 203.48C251.07 207.303 250.765 211.342 251.358 215.299L248.604 224.645C255.038 224.095 261.277 222.156 266.891 218.962C272.504 215.769 277.359 211.396 281.119 206.146C283.2 203.179 284.899 199.963 286.176 196.572C280.591 196.013 274.888 194.794 274.888 194.794Z" fill="#F2F2F2"/>
<path d="M302.58 235.822C302.58 235.893 302.567 235.962 302.54 236.027C302.513 236.091 302.474 236.15 302.425 236.2C302.375 236.249 302.316 236.289 302.251 236.315C302.187 236.342 302.117 236.356 302.047 236.355H0.53291C0.391574 236.355 0.256024 236.299 0.156085 236.199C0.0561448 236.099 0 235.964 0 235.822C0 235.681 0.0561448 235.546 0.156085 235.446C0.256024 235.346 0.391574 235.29 0.53291 235.29H302.047C302.117 235.289 302.187 235.303 302.251 235.33C302.316 235.356 302.375 235.396 302.425 235.445C302.474 235.495 302.513 235.554 302.54 235.618C302.567 235.683 302.58 235.752 302.58 235.822Z" fill="#CCCCCC"/>
<path d="M124.942 213.103C178.117 213.103 221.224 169.996 221.224 116.821C221.224 63.6464 178.117 20.5396 124.942 20.5396C71.767 20.5396 28.6602 63.6464 28.6602 116.821C28.6602 169.996 71.767 213.103 124.942 213.103Z" fill="#E6E6E6"/>
<path d="M207.788 116.822C207.798 129.749 204.778 142.499 198.971 154.048C193.164 165.598 184.731 175.626 174.349 183.328C173.655 183.847 172.947 184.353 172.235 184.846C158.352 194.496 141.849 199.669 124.941 199.669C108.033 199.669 91.5296 194.496 77.6464 184.846C76.9343 184.353 76.2268 183.847 75.5326 183.328C65.1577 175.619 56.7303 165.589 50.924 154.041C45.1177 142.493 42.0938 129.747 42.0938 116.822C42.0938 103.896 45.1177 91.15 50.924 79.6021C56.7303 68.0541 65.1577 58.0247 75.5326 50.3156C76.2268 49.7962 76.9343 49.2901 77.6464 48.7975C91.5297 39.147 108.033 33.9746 124.941 33.9746C141.849 33.9746 158.352 39.147 172.235 48.7975C172.947 49.2901 173.655 49.7962 174.349 50.3156C184.731 58.0179 193.164 68.0459 198.971 79.5954C204.778 91.1449 207.798 103.895 207.788 116.822Z" fill="white"/>
<path d="M124.942 192.504C166.74 192.504 200.624 158.62 200.624 116.822C200.624 75.0236 166.74 41.1396 124.942 41.1396C83.1438 41.1396 49.2598 75.0236 49.2598 116.822C49.2598 158.62 83.1438 192.504 124.942 192.504Z" fill="#00B195"/>
<path opacity="0.2" d="M125.139 41.3511C123.992 41.3511 122.851 41.3811 121.717 41.4316C140.845 43.1125 158.619 52.0016 171.438 66.298C184.257 80.5944 191.162 99.2291 190.754 118.427C190.347 137.624 182.657 155.949 169.243 169.689C155.829 183.428 137.694 191.555 118.512 192.423C120.696 192.613 122.905 192.715 125.139 192.715C145.211 192.715 164.461 184.741 178.654 170.548C192.847 156.355 200.821 137.105 200.821 117.033C200.821 96.961 192.847 77.711 178.654 63.5178C164.461 49.3247 145.211 41.3511 125.139 41.3511Z" fill="black"/>
<path d="M125.166 35.7656C124.513 35.7668 123.887 36.0266 123.426 36.4883C122.964 36.95 122.704 37.5758 122.703 38.2286V48.9764C122.703 49.6296 122.963 50.2561 123.425 50.718C123.886 51.1799 124.513 51.4394 125.166 51.4394C125.819 51.4394 126.446 51.1799 126.908 50.718C127.37 50.2561 127.629 49.6296 127.629 48.9764V38.2286C127.628 37.5758 127.368 36.95 126.906 36.4883C126.445 36.0266 125.819 35.7668 125.166 35.7656Z" fill="white"/>
<path d="M174.35 50.3153C173.656 49.7958 172.948 49.2898 172.236 48.7972C171.809 48.7694 171.382 48.8534 170.997 49.0411C170.612 49.2288 170.283 49.5137 170.042 49.8675L163.992 58.7478C163.624 59.2876 163.486 59.9514 163.608 60.593C163.729 61.2346 164.101 61.8016 164.641 62.1692C165.181 62.5368 165.844 62.6749 166.486 62.5531C167.128 62.4313 167.695 62.0597 168.062 61.5198L174.112 52.6395C174.343 52.3026 174.485 51.9135 174.526 51.5076C174.568 51.1017 174.507 50.6918 174.35 50.3153Z" fill="white"/>
<path d="M201.836 90.8074C201.715 90.508 201.535 90.2355 201.308 90.0055C201.081 89.7754 200.811 89.5924 200.513 89.4668C200.216 89.3412 199.896 89.2755 199.573 89.2735C199.25 89.2715 198.929 89.3331 198.63 89.455L188.67 93.4988C188.066 93.7451 187.584 94.2213 187.33 94.8228C187.077 95.4243 187.072 96.1018 187.318 96.7066C187.564 97.3114 188.039 97.7939 188.641 98.048C189.242 98.3022 189.919 98.3073 190.524 98.0621L200.484 94.0183C201.088 93.7708 201.57 93.2939 201.823 92.6921C202.077 92.0904 202.081 91.4127 201.836 90.8074Z" fill="white"/>
<path d="M85.8911 58.7478L79.8411 49.8675C79.6 49.5137 79.2708 49.2288 78.886 49.0411C78.5011 48.8534 78.074 48.7694 77.6467 48.7972C76.9347 49.2898 76.2271 49.7958 75.533 50.3153C75.3757 50.6918 75.315 51.1017 75.3564 51.5076C75.3979 51.9135 75.5402 52.3026 75.7704 52.6395L81.8204 61.5198C82.188 62.0596 82.755 62.4313 83.3966 62.5531C84.0383 62.6749 84.702 62.5368 85.2418 62.1692C85.7816 61.8016 86.1533 61.2346 86.2751 60.593C86.3968 59.9514 86.2587 59.2876 85.8911 58.7478Z" fill="white"/>
<path d="M61.2122 93.4992L51.2526 89.4554C50.6475 89.2097 49.9696 89.2143 49.368 89.4684C48.7663 89.7225 48.2902 90.2051 48.0444 90.8102C47.7986 91.4152 47.8032 92.0932 48.0571 92.6948C48.3111 93.2965 48.7936 93.7727 49.3986 94.0187L59.3582 98.0625C59.9632 98.3076 60.6408 98.3026 61.242 98.0484C61.8433 97.7942 62.3191 97.3117 62.5648 96.707C62.8105 96.1022 62.806 95.4246 62.5524 94.8231C62.2988 94.2216 61.8167 93.7455 61.2122 93.4992Z" fill="white"/>
<path d="M125.166 182.204C124.513 182.205 123.887 182.465 123.426 182.926C122.964 183.388 122.704 184.014 122.703 184.667V195.414C122.703 196.068 122.963 196.694 123.425 197.156C123.886 197.618 124.513 197.877 125.166 197.877C125.819 197.877 126.446 197.618 126.908 197.156C127.37 196.694 127.629 196.068 127.629 195.414V184.667C127.628 184.014 127.368 183.388 126.906 182.926C126.445 182.465 125.819 182.205 125.166 182.204Z" fill="white"/>
<path d="M174.112 181.004L168.062 172.123C167.88 171.856 167.647 171.627 167.377 171.45C167.106 171.273 166.804 171.15 166.486 171.09C166.168 171.03 165.842 171.033 165.525 171.099C165.209 171.164 164.908 171.292 164.641 171.474C164.374 171.656 164.145 171.889 163.968 172.159C163.79 172.43 163.668 172.732 163.608 173.05C163.547 173.368 163.55 173.694 163.616 174.011C163.682 174.328 163.81 174.628 163.992 174.895L170.042 183.776C170.283 184.13 170.612 184.414 170.997 184.602C171.382 184.79 171.809 184.874 172.236 184.846C172.948 184.353 173.656 183.847 174.35 183.328C174.507 182.951 174.568 182.542 174.526 182.136C174.485 181.73 174.343 181.341 174.112 181.004Z" fill="white"/>
<path d="M200.484 139.625L190.524 135.581C189.919 135.335 189.241 135.34 188.639 135.594C188.038 135.848 187.562 136.331 187.316 136.936C187.07 137.541 187.075 138.219 187.329 138.82C187.583 139.422 188.065 139.898 188.67 140.144L198.63 144.188C199.235 144.433 199.912 144.428 200.514 144.174C201.115 143.92 201.591 143.437 201.836 142.832C202.082 142.228 202.078 141.55 201.824 140.949C201.57 140.347 201.088 139.871 200.484 139.625Z" fill="white"/>
<path d="M85.2418 171.474C84.7019 171.106 84.0383 170.968 83.3967 171.09C82.7551 171.212 82.1881 171.583 81.8205 172.123L75.7704 181.003C75.5402 181.34 75.3979 181.729 75.3564 182.135C75.315 182.541 75.3757 182.951 75.533 183.328C76.2271 183.847 76.9347 184.353 77.6467 184.846C78.074 184.874 78.5011 184.79 78.886 184.602C79.2708 184.414 79.6 184.129 79.8411 183.775L85.8912 174.895C86.0732 174.628 86.2008 174.327 86.2667 174.011C86.3326 173.694 86.3354 173.368 86.2751 173.05C86.2148 172.732 86.0925 172.429 85.9152 172.159C85.7379 171.889 85.5091 171.656 85.2418 171.474Z" fill="white"/>
<path d="M62.5649 136.933C62.4433 136.634 62.2638 136.361 62.0368 136.131C61.8098 135.901 61.5397 135.718 61.2419 135.593C60.9442 135.467 60.6246 135.401 60.3014 135.399C59.9782 135.397 59.6578 135.459 59.3585 135.581L49.3989 139.625C48.7944 139.871 48.3123 140.347 48.0587 140.949C47.8051 141.55 47.8007 142.228 48.0464 142.833C48.2921 143.437 48.7678 143.92 49.3691 144.174C49.9703 144.428 50.6479 144.433 51.2529 144.188L61.2125 140.144C61.8168 139.897 62.2983 139.42 62.5518 138.818C62.8053 138.216 62.81 137.539 62.5649 136.933Z" fill="white"/>
<path d="M128.361 115.599C128.589 116.946 128.273 118.327 127.483 119.441C126.693 120.555 125.494 121.31 124.148 121.54L80.4413 128.975C79.7746 129.088 79.092 129.069 78.4327 128.919C77.7733 128.768 77.15 128.489 76.5983 128.098C76.0467 127.707 75.5775 127.211 75.2176 126.638C74.8577 126.066 74.6141 125.428 74.5007 124.761C74.3872 124.094 74.4063 123.412 74.5566 122.752C74.707 122.093 74.9858 121.47 75.377 120.918C75.7683 120.366 76.2644 119.897 76.8369 119.537C77.4095 119.177 78.0474 118.934 78.7141 118.82L122.421 111.386C123.767 111.159 125.149 111.474 126.262 112.264C127.376 113.054 128.131 114.254 128.361 115.599Z" fill="#3F3D56"/>
<path d="M174.361 164.023C173.733 164.654 172.88 165.011 171.99 165.014C171.099 165.018 170.244 164.668 169.611 164.041L122.561 117.361C121.93 116.733 121.573 115.881 121.57 114.99C121.567 114.1 121.918 113.245 122.545 112.613C123.172 111.981 124.024 111.624 124.914 111.62C125.804 111.616 126.66 111.966 127.292 112.592L174.342 159.273C174.973 159.901 175.33 160.753 175.333 161.644C175.337 162.534 174.987 163.39 174.361 164.023Z" fill="#3F3D56"/>
<path d="M124.941 122.643C128.156 122.643 130.763 120.037 130.763 116.822C130.763 113.606 128.156 111 124.941 111C121.726 111 119.119 113.606 119.119 116.822C119.119 120.037 121.726 122.643 124.941 122.643Z" fill="#CCCCCC"/>
<path d="M84.8414 15.873C75.9052 29.9223 62.2705 39.2461 45.4556 45.3712C45.1233 45.6201 44.7453 45.8011 44.3431 45.9038C43.9408 46.0066 43.5223 46.0291 43.1114 45.9701C42.7005 45.9111 42.3052 45.7718 41.9482 45.5601C41.5911 45.3483 41.2792 45.0683 41.0304 44.736C31.8966 32.5407 33.959 15.1112 46.0137 5.79257C48.928 3.54355 52.2601 1.89586 55.8165 0.945143C59.3729 -0.00557425 63.0827 -0.24038 66.7306 0.254365C70.3784 0.749109 73.8917 1.96354 77.0664 3.82717C80.2411 5.69079 83.0139 8.16648 85.224 11.1105L85.4767 11.4478C85.7255 11.7801 85.9065 12.1581 86.0092 12.5603C86.112 12.9625 86.1345 13.381 86.0755 13.7919C86.0165 14.2029 85.8772 14.5981 85.6655 14.9552C85.4537 15.3123 85.1737 15.6241 84.8414 15.873Z" fill="#E6E6E6"/>
<path d="M164.659 11.1105C166.869 8.16647 169.642 5.69078 172.817 3.82716C175.991 1.96354 179.505 0.749111 183.152 0.254367C186.8 -0.240378 190.51 -0.00557916 194.066 0.945138C197.623 1.89585 200.955 3.54355 203.869 5.79256C215.924 15.1112 217.986 32.5407 208.853 44.736C208.604 45.0683 208.292 45.3483 207.935 45.5601C207.578 45.7718 207.183 45.9111 206.772 45.9701C206.361 46.0291 205.942 46.0066 205.54 45.9038C205.138 45.8011 204.76 45.6201 204.427 45.3712C188.818 39.3949 176.017 29.0528 165.042 15.873C164.37 15.3704 163.927 14.6218 163.807 13.7919C163.688 12.962 163.904 12.1188 164.406 11.4478L164.659 11.1105Z" fill="#E6E6E6"/>
<path d="M160.741 200.237C160.172 200.557 159.753 201.089 159.575 201.717C159.398 202.346 159.477 203.019 159.795 203.589L174.009 228.991C174.328 229.561 174.861 229.98 175.489 230.158C176.118 230.335 176.791 230.256 177.361 229.937C177.931 229.618 178.351 229.086 178.529 228.457C178.706 227.829 178.627 227.155 178.308 226.585L164.093 201.183C163.773 200.614 163.241 200.195 162.613 200.018C161.984 199.84 161.311 199.919 160.741 200.237Z" fill="#E6E6E6"/>
<path d="M85.7898 201.183L71.5751 226.585C71.2563 227.155 71.1769 227.828 71.3545 228.457C71.5321 229.085 71.952 229.617 72.522 229.936C73.0919 230.255 73.7652 230.335 74.3938 230.157C75.0224 229.98 75.5548 229.56 75.8738 228.99L90.0886 203.589C90.2466 203.306 90.3475 202.996 90.3855 202.674C90.4234 202.353 90.3978 202.028 90.3099 201.716C90.222 201.405 90.0737 201.114 89.8733 200.86C89.673 200.606 89.4246 200.394 89.1423 200.236C88.86 200.078 88.5493 199.977 88.228 199.939C87.9068 199.901 87.5812 199.927 87.2699 200.015C86.9585 200.103 86.6676 200.251 86.4137 200.452C86.1597 200.652 85.9477 200.901 85.7898 201.183Z" fill="#E6E6E6"/>
<path d="M176.888 235.495C181.093 235.495 184.501 232.086 184.501 227.882C184.501 223.677 181.093 220.269 176.888 220.269C172.684 220.269 169.275 223.677 169.275 227.882C169.275 232.086 172.684 235.495 176.888 235.495Z" fill="#E6E6E6"/>
<path d="M182.263 40.6918C186.468 40.6918 189.876 37.2833 189.876 33.0788C189.876 28.8743 186.468 25.4658 182.263 25.4658C178.059 25.4658 174.65 28.8743 174.65 33.0788C174.65 37.2833 178.059 40.6918 182.263 40.6918Z" fill="#E6E6E6"/>
<path d="M124.494 22.7789C128.698 22.7789 132.107 19.3705 132.107 15.166C132.107 10.9614 128.698 7.55298 124.494 7.55298C120.289 7.55298 116.881 10.9614 116.881 15.166C116.881 19.3705 120.289 22.7789 124.494 22.7789Z" fill="#E6E6E6"/>
<path d="M69.4118 39.7963C73.6163 39.7963 77.0248 36.3878 77.0248 32.1833C77.0248 27.9788 73.6163 24.5703 69.4118 24.5703C65.2073 24.5703 61.7988 27.9788 61.7988 32.1833C61.7988 36.3878 65.2073 39.7963 69.4118 39.7963Z" fill="#E6E6E6"/>
<path d="M74.3376 235.495C78.5421 235.495 81.9506 232.086 81.9506 227.882C81.9506 223.677 78.5421 220.269 74.3376 220.269C70.1331 220.269 66.7246 223.677 66.7246 227.882C66.7246 232.086 70.1331 235.495 74.3376 235.495Z" fill="#E6E6E6"/>
<path d="M170.917 159.741C171.217 160.211 171.617 160.61 172.087 160.908C172.558 161.207 173.089 161.399 173.641 161.471C174.194 161.542 174.756 161.492 175.288 161.323C175.819 161.154 176.307 160.87 176.717 160.492L188.662 166.893L188.022 159.88L176.776 154.877C176.095 154.23 175.201 153.856 174.263 153.824C173.325 153.793 172.408 154.107 171.686 154.707C170.964 155.306 170.486 156.15 170.345 157.078C170.203 158.006 170.407 158.954 170.917 159.741Z" fill="#9F616A"/>
<path d="M179.621 162.189L184.302 155.727L206.855 166.388L234.918 161.123C236.306 160.862 237.733 160.911 239.099 161.264C240.466 161.618 241.738 162.268 242.825 163.168C243.912 164.068 244.787 165.197 245.389 166.473C245.991 167.75 246.304 169.143 246.307 170.555C246.309 173.104 245.299 175.55 243.5 177.356C241.701 179.162 239.258 180.18 236.709 180.188L204.548 180.247L179.621 162.189Z" fill="#3F3D56"/>
<path d="M172.41 273.798L167.674 271.533L174.18 251.736L181.17 255.079L172.41 273.798Z" fill="#9F616A"/>
<path d="M204.165 270.607C203.821 270.822 203.476 271.035 203.128 271.247C202.436 271.671 201.737 272.089 201.037 272.499C200.686 272.705 200.331 272.91 199.98 273.112V273.122L199.959 273.125L199.952 273.129L199.416 273.261L198.647 271.229L198.292 270.294L197.791 268.968L196.873 266.543L192.037 253.775L199.555 251.921L199.837 253.072H199.841L199.98 253.643L202.606 264.296L203.142 266.474L203.159 266.54L203.483 267.841L203.761 268.968L204.071 270.228L204.165 270.607Z" fill="#9F616A"/>
<path d="M249.013 225.768C248.537 226.534 248.05 227.296 247.559 228.051C246.648 229.456 245.712 230.841 244.752 232.205C244.752 232.208 244.748 232.208 244.745 232.211C244.184 232.73 243.566 233.182 242.901 233.558C242.873 233.579 242.842 233.593 242.814 233.61C242.324 233.881 241.803 234.09 241.262 234.233C241.067 234.281 240.869 234.33 240.674 234.379C239.971 234.546 239.276 234.689 238.583 234.814C237.352 235.033 236.134 235.19 234.923 235.287C234.826 235.297 234.729 235.304 234.631 235.311C229.653 235.677 224.806 235.089 219.748 234.125C217.25 233.652 214.7 233.085 212.059 232.497C211.197 232.302 210.33 232.111 209.454 231.919C209.387 231.905 209.318 231.888 209.248 231.874C207.996 231.599 206.723 231.328 205.418 231.06C203.776 230.722 202.082 230.395 200.321 230.086L200.446 232.566C200.551 234.475 200.947 236.355 201.622 238.143C202.374 240.342 202.969 242.081 201.713 245.703L201.107 247.457C201.421 248.327 201.529 249.259 201.422 250.178C201.315 251.097 200.997 251.98 200.492 252.755L200.37 252.939L205.418 265.711L205.745 266.539H203.16L199.98 266.542H194.591L186.816 250.943L186.443 250.198V250.16L187.247 220.181C187.257 219.917 187.278 219.649 187.313 219.384C187.455 218.182 187.835 217.021 188.43 215.967C189.026 214.913 189.825 213.989 190.782 213.247C191.698 212.531 192.748 212.004 193.871 211.697C194.993 211.39 196.165 211.309 197.319 211.459L199.98 211.804L205.418 212.506L209.248 213.004L209.325 213.014L220.621 214.475L221.432 211.17L221.581 211.115L226.337 209.372L242.786 203.343L242.828 203.329L243.91 202.932L244.038 203.141C244.077 203.203 244.115 203.266 244.15 203.329C245.219 205.246 246.09 207.267 246.749 209.361C247.856 212.782 248.768 216.263 249.48 219.788C249.511 219.941 249.539 220.08 249.563 220.205L249.574 220.244C249.584 220.303 249.591 220.341 249.594 220.352C249.974 221.931 249.709 223.858 249.013 225.768Z" fill="#2F2E41"/>
<path d="M249.708 214.72C249.656 214.498 249.59 214.272 249.52 214.052C248.968 212.392 248.324 210.764 247.593 209.175C246.772 207.366 245.787 205.428 244.615 203.33C244.048 202.314 243.438 201.258 242.785 200.161C242.458 199.611 242.118 199.051 241.765 198.48C241.752 198.454 241.737 198.429 241.72 198.404L241.619 198.237L225.344 200.415L219.284 201.225L218.922 204.245L218.835 204.993C218.832 204.993 218.832 204.993 218.835 204.997L218.592 207.035V207.039L218.268 209.731L218.24 209.728L209.247 208.563L199.979 207.362L195.001 206.719C193.847 206.568 192.675 206.649 191.552 206.956C190.43 207.263 189.38 207.79 188.464 208.507C187.507 209.248 186.708 210.173 186.112 211.227C185.517 212.28 185.137 213.442 184.995 214.644C184.964 214.887 184.943 215.138 184.932 215.385L180.236 226.514C177.425 233.17 175.635 240.212 174.927 247.402L171.482 258.413L171.973 258.459L179.272 259.137L181.199 259.318L185.444 253.122C185.927 252.416 186.386 251.688 186.814 250.944C187.519 249.728 188.145 248.468 188.69 247.173L197.871 225.324C198.58 225.446 199.283 225.562 199.979 225.672C203.197 226.194 206.286 226.62 209.247 226.949C218.874 228.024 227.209 228.108 234.63 227.196C236.714 226.942 238.728 226.608 240.673 226.194C241.386 226.045 242.09 225.883 242.785 225.711C242.948 225.672 243.108 225.634 243.268 225.592C244.706 225.222 246.028 224.496 247.113 223.482C248.198 222.468 249.011 221.199 249.478 219.789C250.036 218.156 250.116 216.397 249.708 214.72Z" fill="#2F2E41"/>
<path d="M173.923 270.565L168.799 268.109L167.995 267.723L166.711 270.875L157.749 272.848C157.306 272.945 156.906 273.181 156.606 273.522C156.307 273.863 156.125 274.291 156.086 274.743C156.047 275.195 156.154 275.647 156.39 276.034C156.627 276.421 156.981 276.722 157.401 276.894L166.158 280.467L168.938 277.965L168.256 281.323L171.554 282.669L175.169 271.164L173.923 270.565Z" fill="#2F2E41"/>
<path d="M205.418 265.711L205.745 266.539H205.418V265.711Z" fill="#2F2E41"/>
<path d="M203.633 266.716L198.263 268.576L197.42 268.867L198.726 272.01L193.746 279.718C193.499 280.099 193.381 280.548 193.408 281.001C193.435 281.454 193.607 281.886 193.897 282.235C194.188 282.583 194.582 282.83 195.022 282.938C195.463 283.047 195.926 283.011 196.345 282.838L205.082 279.215L205.297 275.482L207.175 278.347L210.465 276.983L204.939 266.265L203.633 266.716Z" fill="#2F2E41"/>
<path d="M248.369 219.761C248.05 219.76 247.736 219.682 247.454 219.534L219.118 204.728L218.791 203.387L218.174 199.146L218.182 199.106L220.877 186.682C220.828 186.575 220.725 186.4 220.608 186.202C219.405 184.164 215.744 177.96 222.731 169.418L235 155.115L245.529 154.662L245.649 154.813C248.464 158.347 250.363 162.521 251.176 166.966C251.99 171.41 251.692 175.987 250.311 180.289L249.214 200.09L250.39 204.089C251.078 206.439 250.964 208.951 250.067 211.229L250.337 217.704C250.347 217.97 250.304 218.235 250.21 218.483C250.116 218.731 249.973 218.958 249.789 219.15C249.606 219.342 249.385 219.495 249.141 219.6C248.897 219.705 248.634 219.76 248.369 219.761Z" fill="#3F3D56"/>
<path d="M223.788 236.091C224.268 235.807 224.68 235.422 224.995 234.962C225.31 234.502 225.521 233.978 225.612 233.428C225.702 232.878 225.671 232.315 225.521 231.778C225.37 231.241 225.104 230.744 224.741 230.321L231.553 218.605L224.522 219.001L219.13 230.066C218.461 230.724 218.055 231.604 217.991 232.541C217.927 233.478 218.209 234.405 218.783 235.148C219.358 235.89 220.184 236.396 221.107 236.57C222.029 236.744 222.983 236.574 223.788 236.091Z" fill="#9F616A"/>
<path d="M226.537 227.478L220.242 222.574L231.681 200.407L227.395 172.177C227.183 170.781 227.281 169.356 227.682 168.003C228.083 166.65 228.777 165.401 229.714 164.346C230.652 163.291 231.81 162.456 233.107 161.899C234.404 161.342 235.807 161.077 237.218 161.123C239.765 161.21 242.175 162.304 243.917 164.165C245.659 166.026 246.592 168.502 246.511 171.05L245.452 203.194L226.537 227.478Z" fill="#3F3D56"/>
<path d="M228.244 149.171V138.752C228.242 135.049 229.71 131.497 232.327 128.877C234.944 126.257 238.494 124.784 242.197 124.781C245.9 124.779 249.452 126.248 252.072 128.864C254.692 131.481 256.165 135.031 256.168 138.734V138.752C258.628 143.88 257.089 146.318 256.168 149.171C256.167 149.668 255.969 150.145 255.618 150.496C255.266 150.847 254.79 151.045 254.293 151.046H230.12C229.623 151.045 229.146 150.848 228.794 150.496C228.443 150.145 228.245 149.668 228.244 149.171Z" fill="#2F2E41"/>
<path d="M237.629 150.369C243.4 150.369 248.08 145.69 248.08 139.918C248.08 134.146 243.4 129.467 237.629 129.467C231.857 129.467 227.178 134.146 227.178 139.918C227.178 145.69 231.857 150.369 237.629 150.369Z" fill="#9F616A"/>
<path d="M248.567 142.658C248.472 142.643 248.377 142.623 248.283 142.608C246.652 142.319 245.022 142.035 243.397 141.741L243.247 138.057L241.278 141.357C236.786 142.848 232.584 142.005 228.631 140.146C227.327 139.527 226.061 138.829 224.842 138.057C225.174 136.019 225.957 134.082 227.135 132.386C228.312 130.69 229.854 129.279 231.647 128.256C231.796 128.171 231.941 128.096 232.09 128.021L232.092 128.021L232.094 128.02L232.095 128.018L232.095 128.016C232.35 127.897 232.609 127.782 232.868 127.677C234.898 126.884 237.111 126.683 239.25 127.098C241.389 127.513 243.366 128.526 244.952 130.02C248.143 133.067 249.579 138.097 248.567 142.658Z" fill="#2F2E41"/>
</g>
<defs>
<clipPath id="clip0_566_74">
<rect width="302.58" height="283" fill="white"/>
</clipPath>
</defs>
</svg>
