<svg width="239" height="200" viewBox="0 0 239 200" fill="none" xmlns="http://www.w3.org/2000/svg">
<g clip-path="url(#clip0_445_704)">
<path d="M219.829 196.148L216.264 196.148L214.568 182.398H219.83L219.829 196.148Z" fill="#9E616A"/>
<path d="M220.739 199.604L209.244 199.604V199.458C209.244 198.272 209.716 197.134 210.555 196.295C211.394 195.456 212.532 194.984 213.718 194.984L220.739 194.984L220.739 199.604Z" fill="#2F2E41"/>
<path d="M206.163 196.148L202.598 196.148L200.902 182.398H206.164L206.163 196.148Z" fill="#9E616A"/>
<path d="M207.071 199.604L195.576 199.604V199.458C195.576 198.272 196.048 197.134 196.887 196.295C197.726 195.456 198.864 194.984 200.05 194.984L207.071 194.984L207.071 199.604Z" fill="#2F2E41"/>
<path d="M52.1465 199.072V88.6304C52.1465 87.9502 52.4167 87.2978 52.8977 86.8169C53.3786 86.3359 54.031 86.0657 54.7112 86.0657H66.1563C66.8365 86.0657 67.4889 86.3359 67.9698 86.8169C68.4508 87.2978 68.721 87.9502 68.721 88.6304V199.36L52.1465 199.072Z" fill="#3F3D56"/>
<path d="M89.9473 199.418V111.602C89.9473 110.922 90.2175 110.27 90.6985 109.789C91.1794 109.308 91.8318 109.038 92.512 109.038H103.957C104.637 109.038 105.29 109.308 105.771 109.789C106.252 110.27 106.522 110.922 106.522 111.602V199.229L89.9473 199.418Z" fill="#3F3D56"/>
<path d="M22.7764 95.0855C22.6079 95.0854 22.4431 95.0366 22.3018 94.9449C22.1604 94.8532 22.0487 94.7225 21.98 94.5687C21.9114 94.4149 21.8887 94.2444 21.9148 94.078C21.9409 93.9116 22.0147 93.7563 22.1271 93.6309L60.3956 50.9468L98.0571 72.0951L135.943 6.81543L174.537 38.5819C174.626 38.6546 174.699 38.7442 174.753 38.8453C174.807 38.9464 174.841 39.0572 174.852 39.1713C174.863 39.2853 174.851 39.4005 174.818 39.5101C174.785 39.6198 174.73 39.7218 174.657 39.8103C174.584 39.8988 174.495 39.972 174.394 40.0259C174.292 40.0798 174.182 40.1132 174.067 40.1242C173.953 40.1352 173.838 40.1237 173.729 40.0902C173.619 40.0567 173.517 40.0019 173.429 39.929L136.42 9.46824L98.7027 74.4586L60.7609 53.1529L23.4262 94.7954C23.3444 94.8868 23.2443 94.9599 23.1323 95.0099C23.0203 95.0599 22.899 95.0857 22.7764 95.0855Z" fill="#3F3D56"/>
<path d="M22.6321 102.355C27.1287 102.355 30.774 98.7098 30.774 94.2132C30.774 89.7165 27.1287 86.0713 22.6321 86.0713C18.1355 86.0713 14.4902 89.7165 14.4902 94.2132C14.4902 98.7098 18.1355 102.355 22.6321 102.355Z" fill="#00B195"/>
<path d="M60.4329 60.1917C64.9295 60.1917 68.5748 56.5465 68.5748 52.0498C68.5748 47.5532 64.9295 43.908 60.4329 43.908C55.9363 43.908 52.291 47.5532 52.291 52.0498C52.291 56.5465 55.9363 60.1917 60.4329 60.1917Z" fill="#CCCCCC"/>
<path d="M98.2356 81.4188C102.732 81.4188 106.378 77.7735 106.378 73.2769C106.378 68.7803 102.732 65.135 98.2356 65.135C93.739 65.135 90.0938 68.7803 90.0938 73.2769C90.0938 77.7735 93.739 81.4188 98.2356 81.4188Z" fill="#E6E6E6"/>
<path d="M136.036 16.2838C140.533 16.2838 144.178 12.6385 144.178 8.14188C144.178 3.64524 140.533 0 136.036 0C131.54 0 127.895 3.64524 127.895 8.14188C127.895 12.6385 131.54 16.2838 136.036 16.2838Z" fill="#00B195"/>
<path d="M208.732 76.9219C213.228 76.9219 216.874 73.2767 216.874 68.7801C216.874 64.2834 213.228 60.6382 208.732 60.6382C204.235 60.6382 200.59 64.2834 200.59 68.7801C200.59 73.2767 204.235 76.9219 208.732 76.9219Z" fill="#00B195"/>
<path d="M205.854 132.206C208.901 132.573 216.694 129.793 217.116 134.022C221.127 145.829 221.008 191.09 221.008 191.09L214.902 191.38C214.902 191.38 210.022 155.418 207.715 147.725C206.557 157.076 206.76 192.834 206.76 192.834L201.235 193.125C201.235 193.125 196.279 162.675 196.251 153.738C195.649 147.191 197.126 137.49 196.494 131.162C199.515 132.119 202.696 132.474 205.854 132.206Z" fill="#3F3D56"/>
<path d="M165.551 199.027V71.7361C165.551 70.1037 166.699 68.78 168.115 68.78H179.561C180.977 68.78 182.125 70.1034 182.125 71.7361V199.36L165.551 199.027Z" fill="#3F3D56"/>
<path d="M195.487 97.9514C194.265 95.4528 192.772 93.0959 191.035 90.9232C190.673 90.4989 190.342 90.0479 190.047 89.574C189.422 88.4894 189.235 87.2158 188.84 86.0294C187.735 82.7029 184.978 80.0306 184.307 76.5906C184.062 75.3403 181.999 78.9744 182.542 80.5249C183.51 83.3309 183.635 86.3027 184.868 89.0128C186.101 91.7229 187.549 94.3225 188.613 97.0936C189.218 98.6668 189.701 100.292 190.588 101.746C191.474 103.2 192.859 104.418 194.531 104.636C194.519 103.582 194.679 102.534 195.005 101.531C195.368 100.385 196.014 99.036 195.487 97.9514Z" fill="#9E616A"/>
<path d="M213.78 99.8358C213.705 97.7797 214.026 95.7284 214.725 93.7933C214.992 93.0518 215.306 92.2987 215.28 91.5107C215.242 90.7779 214.893 90.1062 214.576 89.4432C213.483 87.1606 212.715 84.7413 211.959 82.3278L210.505 77.7771C210.031 77.4295 212.8 77.3089 213.39 78.126C215.321 80.807 216.783 83.8864 218.313 86.8146C218.703 87.5123 219.036 88.2407 219.307 88.9925C219.681 90.2109 219.858 91.4811 219.831 92.7552C219.831 95.1367 219.517 97.5095 219.191 99.8706C218.985 101.351 218.714 102.962 217.595 103.942C216.432 102.453 215.263 100.999 213.78 99.8358Z" fill="#9E616A"/>
<path d="M206.092 97.4798C209.425 97.4798 212.126 94.7784 212.126 91.4461C212.126 88.1137 209.425 85.4124 206.092 85.4124C202.76 85.4124 200.059 88.1137 200.059 91.4461C200.059 94.7784 202.76 97.4798 206.092 97.4798Z" fill="#9E616A"/>
<path d="M201.186 85.4264C201.118 85.2433 201.103 85.0449 201.142 84.8536C201.181 84.6623 201.273 84.4857 201.407 84.3437C201.558 84.225 201.758 84.1807 201.919 84.0674C202.149 83.8744 202.337 83.6366 202.472 83.3686C202.884 82.7918 203.487 82.3797 204.174 82.2052C204.861 82.0308 205.588 82.1054 206.225 82.4158C207.222 82.9377 207.825 83.9828 208.711 84.6864C209.162 85.051 209.684 85.3216 210.137 85.6862C211.044 86.4699 211.689 87.513 211.984 88.6748C212.279 89.8287 212.45 91.0105 212.497 92.2004C212.544 92.5574 212.53 92.9199 212.455 93.2722C212.364 93.5677 212.227 93.8473 212.05 94.1009C211.138 95.4819 209.937 96.736 208.431 97.4487C206.926 98.1613 205.094 98.2773 203.61 97.5316C203.46 97.4711 203.332 97.3684 203.24 97.236C203.155 97.0343 203.135 96.8116 203.182 96.598C203.262 95.7538 203.095 94.9045 202.701 94.1536C202.425 93.6013 202.011 93.1261 201.79 92.5545C201.584 91.9145 201.496 91.2427 201.53 90.5714C201.504 88.8321 201.622 87.1003 201.186 85.4264Z" fill="#2D293D"/>
<path d="M14.3438 199.2V137.746C14.3438 136.958 15.492 136.319 16.9084 136.319H28.3536C29.77 136.319 30.9183 136.958 30.9183 137.746V199.36L14.3438 199.2Z" fill="#3F3D56"/>
<path d="M238.49 200H0.290781C0.213661 200 0.1397 199.969 0.0851677 199.915C0.0306356 199.86 0 199.786 0 199.709C0 199.632 0.0306356 199.558 0.0851677 199.504C0.1397 199.449 0.213661 199.418 0.290781 199.418H238.49C238.567 199.418 238.641 199.449 238.695 199.504C238.75 199.558 238.78 199.632 238.78 199.709C238.78 199.786 238.75 199.86 238.695 199.915C238.641 199.969 238.567 200 238.49 200H238.49Z" fill="#E6E6E6"/>
<path d="M127.75 198.983V54.5319C127.75 52.6794 128.898 51.1775 130.315 51.1775H141.76C143.176 51.1775 144.325 52.6794 144.325 54.5319V199.36L127.75 198.983Z" fill="#00B195"/>
<path d="M182.373 79.7805C183.818 79.7805 184.99 78.6088 184.99 77.1634C184.99 75.7181 183.818 74.5464 182.373 74.5464C180.928 74.5464 179.756 75.7181 179.756 77.1634C179.756 78.6088 180.928 79.7805 182.373 79.7805Z" fill="#A0616A"/>
<path d="M211.451 78.6174C212.896 78.6174 214.068 77.4457 214.068 76.0003C214.068 74.555 212.896 73.3833 211.451 73.3833C210.006 73.3833 208.834 74.555 208.834 76.0003C208.834 77.4457 210.006 78.6174 211.451 78.6174Z" fill="#A0616A"/>
<path d="M217.809 108.396C218.065 108.163 220.147 95.9875 220.134 95.7131C220.102 94.2131 215.526 92.5 214.61 93.0961C213.745 93.6585 212.241 100.111 211.272 101.286L210.248 99.4933H202.106L201.613 100.41C200.544 99.7661 199.583 99.1727 199.24 98.9764C199.123 98.8966 198.994 98.8334 198.859 98.7888C198.013 98.5996 197.219 98.2263 196.533 97.6955C195.864 97.1808 192.76 91.7905 191.929 91.933C190.989 92.09 187.821 94.8291 187.858 97.4578C188.257 97.4493 193.445 107.823 193.518 108.21C193.916 109.844 195.231 133.677 195.656 134.788C197.612 134.599 196.068 134.261 197.961 134.788C199.999 135.355 202.151 134.741 204.253 134.514C205.129 134.428 206.008 134.389 206.888 134.398C210.086 134.412 214.651 134.59 217.748 135.384C217.766 133.354 215.983 128.963 215.323 127.047C215.237 126.474 215.24 125.892 215.332 125.32C215.416 124.619 217.119 109.171 217.809 108.396Z" fill="#E6E6E6"/>
</g>
<defs>
<clipPath id="clip0_445_704">
<rect width="238.78" height="200" fill="white"/>
</clipPath>
</defs>
</svg>
